<?xml version="1.0" encoding="utf-8"?>
<!-- Generator: Adobe Illustrator 28.2.0, SVG Export Plug-In . SVG Version: 6.00 Build 0)  -->
<svg version="1.1" id="Layer_1" xmlns="http://www.w3.org/2000/svg" xmlns:xlink="http://www.w3.org/1999/xlink" x="0px" y="0px"
	 viewBox="0 0 228.5 205.7" style="enable-background:new 0 0 228.5 205.7;" xml:space="preserve">
<style type="text/css">
	.st0{fill:#455FE8;}
</style>
<g>
	<path class="st0" d="M228.5,202.7c-2.6,2.3-5.5,3.1-9,3c-14.2-0.2-28.4-0.1-42.6-0.1c-6.5,0-8.2-1.7-8.2-8.2c0-38.6,0-77.3,0-115.9
		c0-6.5,1.6-8,8.4-8c14.4,0,28.7,0.1,43.1-0.1c3.4,0,6.1,0.7,8.4,3.2C228.5,118.6,228.5,160.7,228.5,202.7z"/>
	<path class="st0" d="M228.5,57.8c-2,2.8-4.7,3.8-8.1,3.8c-14.5-0.1-29.1,0-43.6-0.1c-6.2,0-8-2-8.1-7.9c-0.1-5.8,0.1-11.6,0-17.3
		c-0.1-3.3,1.1-5.6,4-7.3c15.3-9.1,30.6-18.3,45.9-27.5c4-2.4,7.2-1.3,10,1.9C228.5,21.4,228.5,39.6,228.5,57.8z"/>
	<path class="st0" d="M144.4,126.7c0,23.3,0,46.6,0,70c0,7.6-1.4,9-8.9,9c-14.2,0-28.5,0-42.7,0c-6.5,0-8.3-1.8-8.3-8.2
		c0-4.5,0-8.9,0-13.4c0-6.6-1.8-8.4-8.6-8.4c-3,0-6,0-8.9,0c-4.2,0.1-6.4,2.3-6.4,6.5c0,5.3,0.1,10.6-0.1,15.9
		c-0.1,5.4-2.2,7.6-7.6,7.6c-15.1,0.1-30.1,0.1-45.2,0c-5.4,0-7.5-2.1-7.5-7.5c0-19.8,0.1-39.7-0.1-59.5c0-3.9,1.7-6.1,4.8-7.9
		c14.9-8.9,29.8-17.9,44.7-26.7c6.2-3.7,10.8-1.2,10.9,6c0.1,15,0,30.1,0,45.2c0,6.8,1.7,8.5,8.5,8.6c15.5,0.3,15.5,0.2,15.5-15.1
		c0-21,0.1-42-0.1-63c0-4.6,1.6-7.3,5.5-9.5c14.6-8.5,29-17.3,43.4-26c2.6-1.6,5.1-3.1,8.3-1.2c2.9,1.7,2.9,4.5,2.9,7.4
		C144.3,79.7,144.4,103.2,144.4,126.7z"/>
</g>
</svg>
