<svg width="360" height="360" viewBox="0 0 360 360" fill="none" xmlns="http://www.w3.org/2000/svg">
<path d="M138.773 238.937C117.756 242.999 97.146 246.975 75.6788 251.122C73.8997 220.127 81.8414 193.719 103.405 172.895C103.405 163.207 103.244 154.311 103.437 145.426C104.23 109.276 112.847 75.3442 132.75 44.7886C144.314 27.0403 158.997 12.3466 177.185 1.30754C177.988 0.814532 178.91 0.503724 180.003 0C193.347 7.3951 204.889 16.9766 214.685 28.6158C238.124 56.4492 250.45 88.9555 254.479 124.795C256.055 138.803 257.598 152.875 255.744 167.022C255.54 168.533 255.723 170.098 255.723 172.199C278.304 193.441 285.453 220.61 284.467 251.669C262.7 247.5 241.693 243.47 220.376 239.376C212.102 256.588 197.977 263.801 179.553 263.683C161.365 263.566 147.443 256.288 138.784 238.937H138.773ZM241.243 174.042C241.747 166.583 242.594 159.841 242.604 153.089C242.626 134.023 240.129 115.267 234.341 97.0473C226.775 73.2543 215.135 51.8407 196.808 34.5212C191.793 29.784 186.605 25.0897 179.682 22.614C177.624 23.9644 175.609 25.1219 173.787 26.5152C160.422 36.7504 149.255 49.0113 140.745 63.5442C122.536 94.668 117.113 128.653 118.806 164.15C118.956 167.193 119.396 170.227 119.696 173.249C101.894 188.779 93.8129 208.22 93.0198 231.767C111.947 228.755 129.674 224.082 147.561 221.413C159.297 252.141 198.255 254.809 212.627 222.132C230.558 224.94 248.199 229.88 267.072 232.302C266.858 208.445 258.391 189.357 241.254 174.042H241.243Z" fill="url(#paint0_linear_2405_15201)"/>
<path d="M179.31 359.999C169.279 345.241 160.201 331.062 156.396 314.449C153.792 303.067 155.271 292.157 164.188 283.326C174.595 273.005 189.974 274.227 198.216 286.327C203.896 294.676 205.986 303.85 203.532 313.881C199.352 330.922 190.424 345.423 179.332 359.999H179.31ZM179.921 336.924C185.237 329.186 189.074 321.823 191.185 313.796C192.964 307.033 192.332 300.292 187.424 294.686C183.372 290.056 177.563 289.831 173.148 294.043C168.796 298.191 166.964 303.292 167.95 309.262C169.59 319.165 174.091 327.825 179.911 336.935L179.921 336.924Z" fill="url(#paint1_linear_2405_15201)"/>
<path d="M211.613 113.553C211.956 135.084 195.386 146.07 179.707 146.134C161.926 146.209 147.693 131.826 147.672 113.938C147.65 96.7583 162.216 82.3218 179.685 82.2039C197.594 82.086 211.538 95.783 211.613 113.553ZM161.251 113.81C161.251 124.474 168.925 132.276 179.396 132.276C189.824 132.276 197.616 124.41 197.691 113.778C197.766 103.542 189.46 94.9363 179.396 95.215C169.482 95.4936 160.458 103.242 161.24 113.81H161.251Z" fill="url(#paint2_linear_2405_15201)"/>
<defs>
<linearGradient id="paint0_linear_2405_15201" x1="179.996" y1="0" x2="179.996" y2="263.685" gradientUnits="userSpaceOnUse">
<stop stop-color="#3FBEF3"/>
<stop offset="1" stop-color="#A372E7"/>
</linearGradient>
<linearGradient id="paint1_linear_2405_15201" x1="179.894" y1="276.344" x2="179.894" y2="359.999" gradientUnits="userSpaceOnUse">
<stop stop-color="#3FBEF3"/>
<stop offset="1" stop-color="#A372E7"/>
</linearGradient>
<linearGradient id="paint2_linear_2405_15201" x1="179.645" y1="82.2031" x2="179.645" y2="146.134" gradientUnits="userSpaceOnUse">
<stop stop-color="#3FBEF3"/>
<stop offset="1" stop-color="#A372E7"/>
</linearGradient>
</defs>
</svg>
