<?xml version="1.0" encoding="UTF-8"?><svg id="Layer_1" xmlns="http://www.w3.org/2000/svg" viewBox="0 0 56.7 54.4"><path d="M16.02,19.65c4.53-4.17,9.06-8.33,13.59-12.5,2.36-2.17,4.71-4.34,7.07-6.51.36-.33.7-.64,1.28-.63,5.2.02,10.39.01,15.94.01C37.84,16.91,21.97,33.61,5.86,50.56c0-.84,0-1.32,0-1.8,0-13.78-.01-27.56.03-41.35,0-1.11-.26-1.43-1.36-1.34-1.24.11-2.5,0-3.75.04C.19,6.13-.01,5.93,0,5.32.03,3.83.03,2.33,0,.83,0,.28.1,0,.75,0,5.24.03,9.74.03,14.24,0c.88,0,.77.51.77,1.06,0,6.16,0,12.33,0,18.49,0,.28-.23.71.23.84.09.03.28-.28.42-.43.05-.19.24-.21.36-.31Z" stroke-width="0"/><path d="M45.42,54.38c-3.29,0-6.58-.03-9.87.02-.82.01-1.17-.13-1.14-1.06.07-2.12.04-4.25.02-6.37-.02-2.55.95-4.59,3.01-6.11,2.94-2.18,5.87-4.37,8.78-6.57.63-.47,1.25-.99,1.74-1.59,1.29-1.58.55-3.69-1.41-4.18-2.45-.61-4.29.85-4.3,3.4q0,2.19-2.22,2.19c-1.33,0-2.67-.04-4,.02-.73.03-1.02-.14-1-.95.06-2.2.05-4.41,0-6.62-.02-.69.22-1.03.81-1.35,3.6-1.93,7.46-2.47,11.46-2.27.95.05,1.91.14,2.84.34,4.73,1,6.93,4.26,6.31,9.15-.29,2.28-1.36,4.06-3.08,5.52-2.79,2.37-5.8,4.45-8.7,6.68-.91.7-1.94,1.31-2.32,2.53-.24.77-.13,1.17.81,1.11,1.08-.07,2.17.02,3.24-.05,1.55-.09,2.18-.64,2.13-2.16-.05-1.38.43-1.75,1.77-1.64,1.78.14,3.58.06,5.37.02.73-.02,1.03.13,1.02.94-.05,2.7-.04,5.41,0,8.12.01.71-.2.91-.91.9-3.45-.04-6.91-.02-10.37-.02Z" stroke-width="0"/></svg>