<svg width="17" height="17" viewBox="0 0 17 17" fill="none" xmlns="http://www.w3.org/2000/svg">
<path fill-rule="evenodd" clip-rule="evenodd" d="M8.00776 8.29332C7.69478 8.29021 7.44127 8.54406 7.44198 8.85706C7.44514 10.2467 7.44867 12.1938 7.4518 13.8578C7.45233 14.1405 7.66153 14.3791 7.94168 14.4172C10.2879 14.7357 12.634 15.0633 14.9769 15.4095C15.319 15.46 15.6263 15.1951 15.6264 14.8495C15.6267 12.8908 15.6287 10.9452 15.6269 9.06563C15.6266 8.75349 15.3735 8.50095 15.0614 8.49787C12.7104 8.47457 10.3598 8.31668 8.00776 8.29332ZM1.10584 8.29025C0.794137 8.29027 0.541992 8.54331 0.541992 8.85502V12.9158C0.541992 13.199 0.751404 13.4385 1.03209 13.4762C2.70864 13.701 4.385 13.9205 6.05909 14.1615C6.40048 14.2107 6.70698 13.9466 6.70732 13.6017C6.70888 12.0282 6.7057 10.4543 6.705 8.88076C6.70487 8.56791 6.45095 8.31452 6.13811 8.31416C4.46055 8.31219 2.7834 8.29019 1.10584 8.29025ZM1.02185 2.49175C0.745718 2.5333 0.541992 2.77088 0.541992 3.05012V7.1052C0.541992 7.41707 0.794389 7.67017 1.10626 7.67005C2.7853 7.6694 4.46434 7.64874 6.14339 7.64606C6.45624 7.64556 6.70997 7.39197 6.70977 7.07911C6.70877 5.50586 6.7085 3.93385 6.70705 2.36064C6.70673 2.02064 6.40864 1.75774 6.07133 1.80043C4.38607 2.01375 2.70139 2.23902 1.02185 2.49175ZM15.6275 7.00061C15.6277 7.31232 15.3756 7.56544 15.0639 7.5671C12.7163 7.57962 10.3685 7.61185 8.01975 7.62272C7.7068 7.62416 7.45254 7.37083 7.45234 7.05789C7.45133 5.4009 7.45135 3.74534 7.4524 2.08936C7.45257 1.81005 7.65659 1.57267 7.93274 1.5308C10.2802 1.17498 12.6319 0.837025 14.9833 0.509415C15.3232 0.462063 15.6265 0.726021 15.6266 1.06918C15.6275 3.04675 15.6266 5.023 15.6275 7.00061Z" fill="white"/>
</svg>
